<svg xmlns="http://www.w3.org/2000/svg">

<symbol id='button-download' viewBox="0 0 480 480">
    <path d="M378.528,214.688l-21.088-24c-5.824-6.624-15.904-7.264-22.56-1.472L272,244.32V16c0-8.832-7.168-16-16-16h-32    c-8.832,0-16,7.168-16,16v228.32l-62.88-55.104c-6.624-5.792-16.704-5.152-22.56,1.472l-21.088,23.968    c-5.856,6.656-5.184,16.8,1.472,22.624l126.528,110.752c6.048,5.28,15.04,5.28,21.088,0L377.056,237.28    C383.712,231.456,384.384,221.312,378.528,214.688z"/>
    <path d="M416,416H64c-8.832,0-16,7.168-16,16v32c0,8.832,7.168,16,16,16h352c8.832,0,16-7.168,16-16v-32    C432,423.168,424.832,416,416,416z"/>
</symbol>

<symbol id='button-remove' viewBox="0 0 339.177 339.177">
    <path d="M247.244,169.59l83.938-83.938c5.332-5.327,7.994-11.798,7.994-19.414c0-7.614-2.669-14.084-7.994-19.414L292.355,7.993   C287.026,2.665,280.556,0,272.944,0c-7.617,0-14.085,2.665-19.417,7.993L169.59,91.931L85.651,7.993   C80.325,2.665,73.854,0,66.237,0c-7.611,0-14.083,2.665-19.414,7.993L7.994,46.824C2.667,52.15,0,58.624,0,66.238   c0,7.616,2.664,14.084,7.994,19.414l83.937,83.938L7.994,253.528C2.667,258.859,0,265.327,0,272.945   c0,7.61,2.664,14.082,7.994,19.41l38.83,38.828c5.33,5.332,11.803,7.994,19.414,7.994c7.616,0,14.084-2.669,19.414-7.994   l83.939-83.938l83.944,83.938c5.328,5.332,11.793,7.994,19.417,7.994c7.611,0,14.082-2.669,19.411-7.994l38.82-38.828   c5.332-5.324,7.994-11.8,7.994-19.41c0-7.618-2.662-14.086-7.994-19.417L247.244,169.59z"/>
</symbol>

<symbol id='button-pause' viewBox="0 0 438.536 438.536">
    <path d="M164.453,0H18.276C13.324,0,9.041,1.807,5.425,5.424C1.808,9.04,0.001,13.322,0.001,18.271v401.991    c0,4.948,1.807,9.233,5.424,12.847c3.619,3.617,7.902,5.428,12.851,5.428h146.181c4.949,0,9.231-1.811,12.847-5.428    c3.617-3.613,5.424-7.898,5.424-12.847V18.271c0-4.952-1.807-9.231-5.428-12.847C173.685,1.807,169.402,0,164.453,0z"/>
    <path d="M433.113,5.424C429.496,1.807,425.215,0,420.267,0H274.086c-4.949,0-9.237,1.807-12.847,5.424    c-3.621,3.615-5.432,7.898-5.432,12.847v401.991c0,4.948,1.811,9.233,5.432,12.847c3.609,3.617,7.897,5.428,12.847,5.428h146.181    c4.948,0,9.229-1.811,12.847-5.428c3.614-3.613,5.421-7.898,5.421-12.847V18.271C438.534,13.319,436.73,9.04,433.113,5.424z"/>
</symbol>

<symbol id='button-play' viewBox="0 0 41.999 41.999">
    <path d="M36.068,20.176l-29-20C6.761-0.035,6.363-0.057,6.035,0.114C5.706,0.287,5.5,0.627,5.5,0.999v40  c0,0.372,0.206,0.713,0.535,0.886c0.146,0.076,0.306,0.114,0.465,0.114c0.199,0,0.397-0.06,0.568-0.177l29-20  c0.271-0.187,0.432-0.494,0.432-0.823S36.338,20.363,36.068,20.176z"/>
</symbol>

</svg>
